<?xml version="1.0" standalone="no"?>
<!DOCTYPE svg PUBLIC "-//W3C//DTD SVG 20010904//EN"
 "http://www.w3.org/TR/2001/REC-SVG-20010904/DTD/svg10.dtd">
<svg version="1.0" xmlns="http://www.w3.org/2000/svg"
 width="200.000000pt" height="200.000000pt" viewBox="0 0 200.000000 200.000000"
 preserveAspectRatio="xMidYMid meet">
<metadata>
Created by potrace 1.14, written by Peter Selinger 2001-2017
</metadata>
<g transform="translate(0.000000,200.000000) scale(0.100000,-0.100000)"
fill="#000000" stroke="none">
<path d="M801 1767 c-6 -8 -9 -16 -7 -18 2 -2 6 -24 10 -49 l7 -45 -21 22
c-11 13 -27 20 -35 17 -18 -7 -20 -35 -3 -52 7 -7 8 -12 2 -12 -5 0 -14 4 -20
10 -10 10 -80 17 -89 8 -13 -12 9 -34 57 -57 53 -25 110 -77 134 -124 14 -27
14 -29 -5 -34 -16 -4 -21 -14 -21 -37 -1 -26 -10 -38 -55 -71 -177 -132 -245
-373 -158 -568 50 -112 141 -161 300 -162 55 0 93 -4 94 -10 0 -5 2 -59 3
-118 2 -102 1 -109 -18 -117 -25 -9 -85 -64 -112 -103 -18 -25 -26 -29 -82
-31 -55 -2 -66 -6 -97 -36 -37 -36 -53 -93 -40 -149 l7 -31 399 0 c219 0 399
3 399 6 0 10 -43 78 -54 86 -17 12 23 9 45 -2 17 -10 50 -60 49 -77 0 -5 26
-9 59 -11 l58 -3 -3 31 c-5 42 -38 111 -66 137 -41 38 -95 55 -158 49 -56 -6
-57 -6 -88 33 -32 39 -126 101 -155 101 -8 0 -17 6 -19 13 -7 18 -13 197 -9
248 0 9 11 19 24 23 33 8 118 66 147 100 61 72 80 121 82 211 2 123 -63 283
-151 371 -47 48 -136 97 -176 97 -15 0 -25 7 -28 19 -3 11 -11 18 -19 17 -36
-4 -41 1 -35 39 14 87 39 140 83 178 28 24 35 36 30 52 -4 11 -13 23 -21 26
-20 7 -79 -46 -95 -84 -20 -47 -30 -35 -14 17 8 25 16 49 19 51 6 7 -25 42
-37 42 -10 0 -36 -57 -41 -89 -5 -33 -17 -37 -18 -5 -2 91 -26 129 -58 91z
m-17 -1669 c-3 -12 -12 -35 -19 -52 l-13 -31 -7 38 c-8 40 5 67 32 67 10 0 12
-6 7 -22z"/>
</g>
</svg>
